<?xml version="1.0" encoding="UTF-8" standalone="no"?>
<svg
   xmlns:dc="http://purl.org/dc/elements/1.1/"
   xmlns:cc="http://creativecommons.org/ns#"
   xmlns:rdf="http://www.w3.org/1999/02/22-rdf-syntax-ns#"
   xmlns:svg="http://www.w3.org/2000/svg"
   xmlns="http://www.w3.org/2000/svg"
   xmlns:sodipodi="http://sodipodi.sourceforge.net/DTD/sodipodi-0.dtd"
   xmlns:inkscape="http://www.inkscape.org/namespaces/inkscape"
   id="Capa_1"
   enable-background="new 0 0 512 512"
   height="512"
   viewBox="0 0 512 512"
   width="512"
   version="1.1"
   sodipodi:docname="multimediaoff.svg"
   inkscape:version="1.0.1 (3bc2e813f5, 2020-09-07)">
  <metadata
     id="metadata41">
    <rdf:RDF>
      <cc:Work
         rdf:about="">
        <dc:format>image/svg+xml</dc:format>
        <dc:type
           rdf:resource="http://purl.org/dc/dcmitype/StillImage" />
        <dc:title></dc:title>
      </cc:Work>
    </rdf:RDF>
  </metadata>
  <defs
     id="defs39" />
  <sodipodi:namedview
     pagecolor="#ffffff"
     bordercolor="#666666"
     borderopacity="1"
     objecttolerance="10"
     gridtolerance="10"
     guidetolerance="10"
     inkscape:pageopacity="0"
     inkscape:pageshadow="2"
     inkscape:window-width="1920"
     inkscape:window-height="1017"
     id="namedview37"
     showgrid="false"
     inkscape:zoom="1.6601562"
     inkscape:cx="256"
     inkscape:cy="256"
     inkscape:window-x="1912"
     inkscape:window-y="-8"
     inkscape:window-maximized="1"
     inkscape:current-layer="Capa_1"
     inkscape:document-rotation="0" />
  <g
     id="g34">
    <g
       fill="#e6e6e6"
       id="g6">
      <path
         d="m15 406v60h241 241v-60h-241z"
         id="path2" />
      <path
         d="m256 46h-241v60h241 241v-60z"
         id="path4" />
    </g>
    <path
       d="m256 46h241v60h-241z"
       fill="#cfcfcf"
       id="path8" />
    <path
       d="m256 406h241v60h-241z"
       fill="#cfcfcf"
       id="path10" />
    <path
       d="m256 106h-226v300h226 226v-300z"
       fill="#8a8a8a"
       id="path12" />
    <path
       d="m256 106h226v300h-226z"
       fill="#696969"
       id="path14" />
    <g
       id="g28">
      <g
         fill="#4d4d4d"
         id="g20">
        <path
           d="m0 391v90h256 256v-90h-256zm81 60h-51v-30h51zm80 0h-50v-30h50zm80 0h-50v-30h50zm190-30h51v30h-51zm-80 0h50v30h-50zm-80 0h50v30h-50z"
           id="path16" />
        <path
           d="m256 31h-256v90h256 256v-90zm-175 60h-51v-30h51zm80 0h-50v-30h50zm80 0h-50v-30h50zm80 0h-50v-30h50zm80.001 0h-50.001v-30h50.001zm80.999 0h-51.099v-30h51.099z"
           id="path18" />
      </g>
      <g
         fill="#363636"
         id="g26">
        <path
           d="m321 91h-50v-30h50zm80.001 0h-50.001v-30h50.001zm-145.001-60v90h256v-90zm226 60h-51.099v-30h51.099z"
           id="path22" />
        <path
           d="m512 391h-256v90h256zm-191 60h-50v-30h50zm80 0h-50v-30h50zm81 0h-51v-30h51z"
           id="path24" />
      </g>
    </g>
    <path
       d="m256 197.976-45-29.998v176.044l45-29.998 87.041-58.024z"
       fill="#f6f6f6"
       id="path30" />
    <path
       d="m256 197.976v116.048l87.041-58.024z"
       fill="#e6e6e6"
       id="path32" />
  </g>
</svg>
